<?xml version="1.0" encoding="utf-8"?>
<!-- Generator: Adobe Illustrator 25.2.3, SVG Export Plug-In . SVG Version: 6.00 Build 0)  -->
<svg version="1.1" id="Warstwa_1" xmlns="http://www.w3.org/2000/svg" xmlns:xlink="http://www.w3.org/1999/xlink" x="0px" y="0px"
	 viewBox="0 0 281 73" style="enable-background:new 0 0 281 73;" xml:space="preserve">
<style type="text/css">
	.st0{fill:#39B54A;}
	.st1{fill:#D9E021;}
	.st2{fill:#29ABE2;}
</style>
<path class="st0" d="M50.2,49.6c-2.1,0.7-4.4,1.3-6.9,1.8c-0.5,0.1-1.5,0.3-3.1,0.7c-0.2,0-0.7,0.2-1.4,0.5
	c-0.7,0.3-1.2,0.4-1.3,0.4c-0.2,0-0.8-0.6-1.6-1.9c-0.9-1.2-1.3-2-1.3-2.3c0,0,0.3-0.4,1-1.2c0.6-0.7,1-1.2,1.1-1.4
	c-0.9-0.7-3-2.3-6.5-4.8c0,0.1-0.1,0.2-0.1,0.3c0,0.3,0.1,0.9,0.4,1.7c0.6,1.9,1.2,3.6,1.9,5.4c0,0.1,0.4,0.7,1,1.6
	c0.5,0.8,0.8,1.3,0.8,1.5c0,0.2-0.1,0.4-0.3,0.6l-11.5,0c-0.1,0-0.8,0-1.8-0.1l-1.9-0.1c-0.9,0-1.4-0.4-1.7-1
	c-0.1-0.3-0.2-1-0.2-2.1c0-1.5,0.1-2.3,0.3-2.4c1.2-0.7,2.4-1.3,3.5-1.8c0-0.1-0.3-2-0.7-5.6c-0.3-2.2-0.4-4.2-0.4-6.1l0-6
	c0,0.3,0-0.3-0.1-1.6c0-1,0.1-1.6,0.1-1.8c0-0.8-0.2-1.3-0.4-1.6c-1.2,0-2.1-0.2-2.7-0.3l0-1c0-0.4,0.1-1.4,0.3-3.1
	c0.2-1.7,0.4-2.6,0.5-2.6c0.4-0.2,1.3-0.3,2.8-0.3c3.9,0,6.5,0.3,7.8,0.9c0.8,0.3,1.1,1.2,1.1,2.6l2.1,16.3c1.9-2,3.3-3.6,4.3-4.7
	L32,27.6l0-0.4c0.3-0.1,0.8-0.8,1.7-1.8c0.8-1.1,1.3-1.6,1.5-1.6c0.3,0,4.6,0.9,12.7,2.8l0.3,0.3c0.1,0.2,0.2,0.4,0.2,0.5
	c0-0.4-0.4,1-1.3,4.2c-0.7-0.3-1.7-0.6-3.1-1c-0.3-0.1-0.8-0.2-1.4-0.3c-0.5,0.6-1.3,1.6-2.3,3.2c-1.2,1.7-1.7,2.7-1.7,3.1
	c0,0.1,2.7,2.8,8,7.9c0.1,0,0.3,0.1,0.8,0.1c0.2,0,0.5,0,0.9-0.1c0.4-0.1,0.7-0.1,0.9-0.1c0.2,0,0.6,0.2,1,0.7L50.2,49.6z"/>
<path class="st0" d="M102.9,46.3c-0.1,1.7-0.2,2.9-0.3,3.5c-0.2,1.5-0.4,2.5-0.7,3.2c-1-0.2-2.7-0.3-5-0.3c-1.2,0-3.2,0-5.8,0
	l-5.7,0.1L85.2,53l0-1.3c0-1.8,0.2-3,0.6-3.6c0.2-0.3,1.1-0.8,2.6-1.6c0-1.9,0-4.5,0-7.8l0-11.6c0-0.5,0.1-1.2,0.2-2.1
	c0.1-0.9,0.2-1.6,0.2-2.1c0-0.4-0.1-0.6-0.4-0.6c-0.1,0-0.6,0-1.4,0.1l-1.5,0.1c-0.2,0-0.5-0.2-0.9-0.6c0.5-1.3,1.1-3.2,2-5.7
	c1.4,0.2,2.6,0.2,3.5,0.1c0.4-0.2,0.7-0.3,0.9-0.3c1.9,0,4.7,0.3,8.4,1c0.4,0.1,0.6,0.3,0.6,0.8c0,0.7-0.1,1.7-0.2,3
	c-0.1,1.1-0.2,2.1-0.2,2.8c0,1.3-0.2,4.2-0.4,8.7l-0.3,5.4l0,4.6c0,1.8,0,3.1,0,4c0.4,0.2,0.7,0.2,1,0.2c0.2,0,0.5-0.1,0.9-0.2
	c0.4-0.1,0.7-0.2,0.9-0.2C102,46,102.4,46.1,102.9,46.3z"/>
<path class="st0" d="M122.7,50.1c-0.5,0-4-0.2-10.6-0.5c-3.3-0.2-6-0.6-8-1.4l0-0.9c0-0.1,0.1-0.3,0.2-0.4c0.2-0.6,0.3-1.6,0.5-2.8
	c0-0.3,0.2-0.7,0.6-1.1c0.1-0.1,0.7-0.3,1.7-0.6c1-0.3,1.6-0.6,1.6-0.7c0-0.8-0.2-3.4-0.6-7.7l-4,0l0-1.3c0-0.4,0.1-1.5,0.4-3.2
	c0.3-1.7,0.5-2.6,0.6-2.9c0.3-0.6,1.6-0.9,3.7-0.9c1.7,0,3.1,0,4.2,0.1l3.3,0.2c1.3,0.1,2.1,0.4,2.3,0.8c0.3,1,0.4,2.1,0.4,3.3
	c0.2,5.8,0.2,10.2,0.1,13.1c0.1,0.1,0.3,0.2,0.3,0.2c0.2,0,0.5,0,0.9-0.1c0.4-0.1,0.7-0.1,0.9-0.1c0.5,0,0.9,0.1,1.1,0.2
	c0.3,0.9,0.4,2.4,0.4,4.6L122.7,50.1z M120.3,18.6c0,4.1-1.7,6.2-5,6.2c-1.9,0-3.5-0.5-4.7-1.4c-1.4-1-2.1-2.4-2.1-4.2
	c0-1.5,0.6-3,1.7-4.5c1.1-1.5,2.4-2.3,3.9-2.3c0.8,0,2.1,0.5,3.8,1.5C119.5,14.6,120.3,16.2,120.3,18.6z"/>
<path class="st0" d="M155.8,27.3c0,0.8-0.2,1.6-0.6,2.4c-0.1,0.3-0.5,0.6-1.1,1.1c-1.6,1.1-2.8,1.7-3.4,1.7c-0.1,0-0.2,0-0.3-0.1
	c-0.1,0-0.2-0.1-0.3-0.1c-0.9,0-1.6-0.5-1.9-1.5c-0.1-0.3-0.2-1.3-0.4-2.7c-0.1-1-0.5-1.5-0.9-1.5c-0.9,0-1.3,0.3-1.3,0.9
	c0,0,0.2,0.4,0.6,1.1c0.4,0.7,0.7,1.1,0.7,1.3c0.4,1.2,0.5,2.6,0.5,4c0,0.2,0,0.5-0.1,0.9c-0.2,0.5-0.2,0.8-0.2,1
	c-0.4,3.1-2.1,5.5-5.2,7.1c-2.4,1.3-5.1,1.9-8,1.9c-0.7,0-1.5-0.2-2.6-0.7c-1-0.5-1.7-1-2-1.5c-0.3,0.1-0.4,0.7-0.5,1.7
	c0,1.8,0.8,2.7,2.6,2.7c0.7,0,1.6-0.2,2.7-0.5c1.5-0.5,2.4-0.8,2.7-0.8c2.7-0.6,4.8-0.9,6.3-0.9c3.9,0,5.9,2.2,5.9,6.5
	c0,3.4-1.8,6-5.3,7.9c-2.6,1.4-5.6,2-8.9,2c-2.8,0-4.9-0.7-6.4-2c-0.2-0.2-0.4-0.6-0.7-1.1c-0.3-0.5-0.4-0.9-0.4-1.1
	c0-0.3,0.4-0.7,1.3-1.3c0.9-0.6,1.5-0.9,1.8-0.9c-0.3,0-0.4,0-0.4,0.1c0,0.1,0.7,0.5,2,1.1c1.9,0.7,3.1,1.1,3.6,1.1
	c1.5,0,2.9-0.6,4.3-1.9c1.4-1.3,1.9-2.6,1.7-4.1c-0.1-0.1-0.4-0.2-0.7-0.2c-0.7,0-2.2,0.5-4.6,1.6c-2.4,1.1-4,1.6-4.9,1.6
	c-1.3,0-2.7-0.6-4.4-1.7c-1.7-1.1-2.8-2.3-3.4-3.4c-0.5-1-0.7-2.2-0.7-3.8c0-2.2,0.5-3.9,1.4-5c0.4-0.4,0.6-0.7,0.6-0.8
	c0,0.3,0,0.4-0.1,0.4c-0.1,0-0.3-0.5-0.7-1.6c-0.5-1.6-0.8-2.7-0.8-3.4c0-1.5,0.6-3.2,1.8-5.3c1.1-2,2.3-3.4,3.5-4.4
	c1.5-1.2,2.9-2,4.1-2.6c0.6-0.3,1.6-0.5,3-0.8c1.4-0.3,2.4-0.4,3.1-0.4c0.8,0,1.5,0.3,1.9,0.8c0.4,0.6,0.9,1.2,1.3,1.8
	c1.8-1.9,3.7-2.8,5.9-2.8c2.1,0,3.8,0.5,5.3,1.4C155,23.8,155.8,25.3,155.8,27.3z M139.2,30.1c0-2.3-0.6-3.5-1.8-3.5
	c-0.1,0-0.1,0-0.1,0c0,0,0,0-0.1,0c-0.1,0-0.2,0-0.3-0.1c-0.1-0.1-0.2-0.1-0.3-0.1c-0.8,0-1.8,1.2-3.1,3.7c-1,1.9-1.5,3.2-1.7,3.8
	c-0.2,0.8-0.3,1.6-0.3,2.5c0,1.7,0.8,2.5,2.6,2.5c1.7,0,3.1-1.2,4.1-3.7C138.8,33.4,139.2,31.7,139.2,30.1z"/>
<path class="st1" d="M193.3,19.2c0,1.6-0.8,3.2-2.5,4.7c-1.7,1.5-3.3,2.2-4.9,2.2c-1.6,0-3-0.6-4.1-1.9c-1.1-1.2-1.6-2.7-1.4-4.3
	l-0.2,0.2c-0.5,2.1-0.8,3.8-0.8,5c0,1.2,0.2,1.7,0.7,1.7l3.7-0.1c0.3,1.7,0.5,3.1,0.5,4.1c0-0.1-0.1,0.4-0.2,1.6
	c-1.2,0.3-2.9,0.9-5,1.7c0.4,2.3,0.9,5.5,1.6,9.5c0.1,0.1,0.3,0.2,0.6,0.2c0.3,0,0.7,0,1.3-0.1c0.5-0.1,1-0.1,1.3-0.1
	c0.1,0,0.3,0.1,0.4,0.3c0.2,0.2,0.3,0.3,0.4,0.4c-0.1,0.5-0.3,1.6-0.6,3.4c-0.2,1.3-0.6,2.5-1,3.6l-16,0.8c-0.1,0-0.5-0.1-1.4-0.4
	c-0.1-1.1-0.2-2.7-0.3-4.7c0.8-0.4,2.1-1,3.8-1.8c-0.2-1.7-0.2-3.8-0.2-6l0.1-6.1c-0.8,0-1.9-0.1-3.2-0.4c0,0,0.1-1.1,0.3-3.5
	c0.2-1.9,0.6-2.8,1.2-2.8c1.3,0,2.1,0.1,2.6,0.2c0.1-0.3,0.2-0.7,0.1-1.1c0-0.4,0-0.9,0-1.5c0-6,3-9.9,9-11.8
	c0.8-0.3,2.5-0.4,5.2-0.4c1.9,0,3.8,0.8,5.8,2.2C192.3,15.7,193.3,17.4,193.3,19.2z"/>
<path class="st1" d="M224.2,44c0,2-1.1,3.6-3.4,4.8c-1.8,1-3.4,1.5-5.1,1.5l-0.5,0c-0.4,0-1.9-1-4.3-3c-0.6,0-1.4,0.2-2.6,0.6
	c-1.2,0.4-2,0.6-2.6,0.6c-0.6,0-1.4,0-2.4,0.1l-2.3,0.2c-2.7,0.2-4.8-1.1-6.3-4c-0.8-1.4-1.2-2.7-1.2-3.7c0-2.1,0.3-3.4,0.8-3.9
	c1.6-1.7,4.1-3.1,7.3-4.1c3.5-1.1,5.5-1.9,6.1-2.3c0.5-0.4,0.8-1.2,0.8-2.4c0-0.8-0.7-1.5-2.1-2.2c-1.1-0.5-2-0.7-2.6-0.7
	c-0.5,0-1,0-1.5,0.1c0.9,0.9,1.4,2,1.4,3.2c0,0.6-0.4,1.3-1.3,2.2c-0.8,0.9-1.6,1.4-2.2,1.6c-0.6,0.2-1.3,0.3-2.1,0.3
	c-1.7,0-3-0.6-4-1.7c-1-1.2-1.5-2.6-1.5-4.3c0-2.6,2.3-4.5,6.9-5.8c3.2-0.9,6.3-1.3,9.3-1.3c3.3,0,5.7,1.1,7.1,3.1
	c1.2,1.8,1.8,4.4,1.8,7.8c0,0.6,0,1.5-0.1,2.7c-0.1,1.2-0.1,2.1-0.1,2.7l0,4.9c0,0.3,0.1,0.5,0.4,0.8c0.3,0.3,0.5,0.4,0.8,0.4
	c0.3,0,0.6-0.6,0.7-1.7c0.2-1.3,0.4-2.1,0.7-2.3c0.8-0.4,1.7-0.8,2.5-1.2l0.4,0C223.8,38.9,224.2,41.3,224.2,44z M210.8,41.6l0-0.6
	c0-2.3-0.4-4.3-1.1-5.9c-0.7,0.2-1.8,0.6-3.2,1.2c-1.7,0.7-2.6,1.5-2.6,2.3c0,0.8,1,1.6,2.9,2.2c1.6,0.6,2.8,0.8,3.5,0.8
	C210.6,41.8,210.7,41.7,210.8,41.6z"/>
<path class="st0" d="M88.1,24.4L88,24.2l-0.2-0.1c-1.4-0.4-14.2-3-14.7-3.1l-0.5-0.1l-0.3,0.3c-0.5,0.4-0.4,1.2,0,3.5
	c0.1,0.6,0.2,1.5,0.2,1.8l-0.1,0.1l0,0.3c0,0.1,1.1,13.5-3.5,17.8c-1.1,1.1-2.5,1.5-4.3,1.3c-1.6-0.2-2.8-1-3.5-2.3
	c-3.1-5.6,2.5-18.8,2.5-18.9l0.1-0.2l0-0.1c0.1-0.3,0.5-1,0.7-1.4c1-1.7,1.3-2.3,1-2.9l-0.3-0.4l-0.4,0C64.2,19.6,51.2,18,49.8,18
	l-0.3,0l-0.2,0.1c-0.8,0.5-1.4,1.4-1.9,2.6c-0.8,1.9-1,2.3-1,2.4L46,23.8l0.8,0.4c1.5,0.8,2.8,1.3,3.7,1.8c-0.7,2.5-2.4,9.7-2.4,10
	c-0.4,2.3-0.3,4.3-0.3,6c0,0.8,0,1.6,0,2.3c-0.4,8.2,5.9,13.5,12.5,15.2c0.3,0.1,0.6,0.1,0.9,0.2c7.4,1.6,16.5-0.8,20.1-9.8
	c0.9-2.3,1.8-4.8,2.4-8.1c0.1-0.4,0.8-7.7,0.9-10.3c1-0.1,2.4-0.3,4.1-0.5l0.8-0.1l-0.2-0.8c0-0.1-0.1-0.5-0.2-2.6
	C89,26.2,88.7,25.2,88.1,24.4z M56.8,49.8c-0.5,0.3-1,0.4-1.5,0.3c-0.5-0.1-0.9-0.3-1.2-0.8C54,49,53.9,48.5,54,47.9
	c0.1-0.6,0.4-1,0.8-1.2c0.2-0.1,0.6-0.2,1.3-0.2c0.6,0,1,0.3,1.3,0.9C57.9,48.6,57.7,49.4,56.8,49.8z M54.7,39.8
	c-0.4,0.2-0.8,0.3-1.2,0.3c-0.4-0.1-0.8-0.3-1-0.7c-0.2-0.3-0.2-0.7-0.1-1.2c0.1-0.5,0.3-0.8,0.6-1c0.2-0.1,0.5-0.1,1-0.1
	c0.5,0,0.8,0.2,1.1,0.8C55.7,38.7,55.5,39.4,54.7,39.8z M55.2,29.2c-0.1-0.2-0.1-0.5-0.1-0.8c0.1-0.3,0.2-0.5,0.4-0.6
	c0.1-0.1,0.4-0.1,0.7-0.1c0.3,0,0.5,0.2,0.7,0.5c0.3,0.6,0.2,1-0.3,1.3c-0.3,0.1-0.6,0.2-0.8,0.2C55.6,29.6,55.3,29.5,55.2,29.2z
	 M64.8,55.5c-0.7,0.4-1.3,0.5-1.9,0.4c-0.7-0.1-1.2-0.4-1.5-1c-0.3-0.5-0.3-1.1-0.2-1.9c0.1-0.7,0.5-1.2,1-1.5
	c0.3-0.1,0.8-0.2,1.6-0.2c0.7,0,1.3,0.4,1.7,1.2C66.2,53.9,66,54.9,64.8,55.5z M74.2,51.9c-0.5,0.3-1,0.4-1.5,0.3
	c-0.5-0.1-0.9-0.3-1.2-0.8c-0.2-0.4-0.2-0.9-0.1-1.4c0.1-0.6,0.4-1,0.8-1.2c0.2-0.1,0.6-0.2,1.3-0.2c0.6,0,1,0.3,1.3,0.9
	C75.4,50.6,75.2,51.4,74.2,51.9z M78.1,43.1c-0.4,0.2-0.8,0.3-1.2,0.3c-0.4,0-0.7-0.3-1-0.7c-0.2-0.3-0.2-0.7-0.1-1.2
	c0.1-0.5,0.3-0.8,0.6-1c0.2-0.1,0.5-0.1,1-0.1c0.5,0,0.8,0.2,1.1,0.7C79,42,78.8,42.7,78.1,43.1z M79,34c-0.3,0.2-0.6,0.2-0.9,0.2
	c-0.3,0-0.6-0.2-0.7-0.5c-0.1-0.2-0.2-0.5-0.1-0.9c0.1-0.4,0.2-0.6,0.5-0.7c0.1-0.1,0.4-0.1,0.8-0.1c0.3,0,0.6,0.2,0.8,0.6
	C79.7,33.2,79.5,33.7,79,34z"/>
<path class="st1" d="M222.4,49.1l0.2,0.2l0.2,0.1c1.4,0.4,14.2,3,14.7,3.1l0.5,0.1l0.3-0.3c0.5-0.4,0.4-1.2,0-3.5
	c-0.1-0.6-0.2-1.5-0.2-1.8l0.1-0.1l0-0.3c0-0.1-1.1-13.5,3.5-17.8c1.1-1.1,2.5-1.5,4.3-1.3c1.6,0.2,2.8,1,3.5,2.3
	c3.1,5.6-2.5,18.8-2.5,18.9l-0.1,0.2l0,0.1c-0.1,0.3-0.5,1-0.7,1.4c-1,1.7-1.3,2.3-1,2.9l0.3,0.4l0.4,0c0.6,0.1,13.5,1.6,14.9,1.7
	l0.3,0l0.2-0.1c0.8-0.5,1.4-1.4,1.9-2.6c0.8-1.9,1-2.3,1-2.4l0.4-0.7l-0.8-0.4c-1.5-0.8-2.8-1.3-3.7-1.8c0.7-2.5,2.4-9.7,2.4-10
	c0.4-2.3,0.3-4.3,0.3-6c0-0.8,0-1.6,0-2.3c0.4-8.2-5.9-13.5-12.5-15.2c-0.3-0.1-0.6-0.1-0.9-0.2c-7.4-1.6-16.5,0.8-20.1,9.8
	c-0.9,2.3-1.8,4.8-2.4,8.1c-0.1,0.4-0.8,7.7-0.9,10.3c-1,0.1-2.4,0.3-4.1,0.5l-0.8,0.1l0.2,0.8c0,0.1,0.1,0.5,0.2,2.6
	C221.5,47.3,221.8,48.3,222.4,49.1z M253.7,23.7c0.5-0.3,1-0.4,1.5-0.3c0.5,0.1,0.9,0.3,1.2,0.8c0.2,0.4,0.2,0.9,0.1,1.4
	c-0.1,0.6-0.4,1-0.8,1.2c-0.2,0.1-0.6,0.2-1.3,0.2c-0.6,0-1-0.3-1.3-0.9C252.6,24.9,252.8,24.1,253.7,23.7z M255.8,33.7
	c0.4-0.2,0.8-0.3,1.2-0.3c0.4,0.1,0.8,0.3,1,0.7c0.2,0.3,0.2,0.7,0.1,1.2c-0.1,0.5-0.3,0.8-0.6,1c-0.2,0.1-0.5,0.1-1,0.1
	c-0.5,0-0.8-0.2-1.1-0.8C254.9,34.8,255,34.1,255.8,33.7z M255.3,44.3c0.1,0.2,0.1,0.5,0.1,0.8c-0.1,0.3-0.2,0.5-0.4,0.6
	c-0.1,0.1-0.4,0.1-0.7,0.1c-0.3,0-0.5-0.2-0.7-0.5c-0.3-0.6-0.2-1,0.3-1.3c0.3-0.1,0.6-0.2,0.8-0.2C255,43.9,255.2,44,255.3,44.3z
	 M245.7,18c0.7-0.4,1.3-0.5,1.9-0.4c0.7,0.1,1.2,0.4,1.5,1c0.3,0.5,0.3,1.1,0.2,1.9c-0.1,0.7-0.5,1.2-1,1.5
	c-0.3,0.1-0.8,0.2-1.6,0.2c-0.7,0-1.3-0.4-1.7-1.2C244.3,19.6,244.6,18.6,245.7,18z M236.3,21.6c0.5-0.3,1-0.4,1.5-0.3
	c0.5,0.1,0.9,0.3,1.2,0.8c0.2,0.4,0.2,0.9,0.1,1.4c-0.1,0.6-0.4,1-0.8,1.2c-0.2,0.1-0.6,0.2-1.3,0.2c-0.6,0-1-0.3-1.3-0.9
	C235.2,22.9,235.3,22.1,236.3,21.6z M232.4,30.4c0.4-0.2,0.8-0.3,1.2-0.3c0.4,0,0.7,0.3,1,0.7c0.2,0.3,0.2,0.7,0.1,1.2
	c-0.1,0.5-0.3,0.8-0.6,1c-0.2,0.1-0.5,0.1-1,0.1c-0.5,0-0.8-0.2-1.1-0.7C231.5,31.5,231.7,30.8,232.4,30.4z M231.5,39.5
	c0.3-0.2,0.6-0.2,0.9-0.2c0.3,0,0.6,0.2,0.7,0.5c0.1,0.2,0.2,0.5,0.1,0.9c-0.1,0.4-0.2,0.6-0.5,0.7c-0.1,0.1-0.4,0.1-0.8,0.1
	c-0.3,0-0.6-0.2-0.8-0.6C230.8,40.3,231,39.8,231.5,39.5z"/>
<path class="st2" d="M50.2-73.4c-2.1,0.7-4.4,1.3-6.9,1.8c-0.5,0.1-1.5,0.3-3.1,0.7c-0.2,0-0.7,0.2-1.4,0.5
	c-0.7,0.3-1.2,0.4-1.3,0.4c-0.2,0-0.8-0.6-1.6-1.9c-0.9-1.2-1.3-2-1.3-2.3c0,0,0.3-0.4,1-1.2c0.6-0.7,1-1.2,1.1-1.4
	c-0.9-0.7-3-2.3-6.5-4.8c0,0.1-0.1,0.2-0.1,0.3c0,0.3,0.1,0.9,0.4,1.7c0.6,1.9,1.2,3.6,1.9,5.4c0,0.1,0.4,0.7,1,1.6
	c0.5,0.8,0.8,1.3,0.8,1.5c0,0.2-0.1,0.4-0.3,0.6l-11.5,0c-0.1,0-0.8,0-1.8-0.1l-1.9-0.1c-0.9,0-1.4-0.4-1.7-1
	c-0.1-0.3-0.2-1-0.2-2.1c0-1.5,0.1-2.3,0.3-2.4c1.2-0.7,2.4-1.3,3.5-1.8c0-0.1-0.3-2-0.7-5.6c-0.3-2.2-0.4-4.2-0.4-6.1l0-6
	c0,0.3,0-0.3-0.1-1.6c0-1,0.1-1.6,0.1-1.8c0-0.8-0.2-1.3-0.4-1.6c-1.2,0-2.1-0.2-2.7-0.3l0-1c0-0.4,0.1-1.4,0.3-3.1
	c0.2-1.7,0.4-2.6,0.5-2.6c0.4-0.2,1.3-0.3,2.8-0.3c3.9,0,6.5,0.3,7.8,0.9c0.8,0.3,1.1,1.2,1.1,2.6l2.1,16.3c1.9-2,3.3-3.6,4.3-4.7
	L32-95.4l0-0.4c0.3-0.1,0.8-0.8,1.7-1.8c0.8-1.1,1.3-1.6,1.5-1.6c0.3,0,4.6,0.9,12.7,2.8l0.3,0.3c0.1,0.2,0.2,0.4,0.2,0.5
	c0-0.4-0.4,1-1.3,4.2c-0.7-0.3-1.7-0.6-3.1-1c-0.3-0.1-0.8-0.2-1.4-0.3c-0.5,0.6-1.3,1.6-2.3,3.2c-1.2,1.7-1.7,2.7-1.7,3.1
	c0,0.1,2.7,2.8,8,7.9c0.1,0,0.3,0.1,0.8,0.1c0.2,0,0.5,0,0.9-0.1c0.4-0.1,0.7-0.1,0.9-0.1c0.2,0,0.6,0.2,1,0.7L50.2-73.4z"/>
<path class="st2" d="M102.9-76.7c-0.1,1.7-0.2,2.9-0.3,3.5c-0.2,1.5-0.4,2.5-0.7,3.2c-1-0.2-2.7-0.3-5-0.3c-1.2,0-3.2,0-5.8,0
	l-5.7,0.1L85.2-70l0-1.3c0-1.8,0.2-3,0.6-3.6c0.2-0.3,1.1-0.8,2.6-1.6c0-1.9,0-4.5,0-7.8l0-11.6c0-0.5,0.1-1.2,0.2-2.1
	c0.1-0.9,0.2-1.6,0.2-2.1c0-0.4-0.1-0.6-0.4-0.6c-0.1,0-0.6,0-1.4,0.1l-1.5,0.1c-0.2,0-0.5-0.2-0.9-0.6c0.5-1.3,1.1-3.2,2-5.7
	c1.4,0.2,2.6,0.2,3.5,0.1c0.4-0.2,0.7-0.3,0.9-0.3c1.9,0,4.7,0.3,8.4,1c0.4,0.1,0.6,0.3,0.6,0.8c0,0.7-0.1,1.7-0.2,3
	c-0.1,1.1-0.2,2.1-0.2,2.8c0,1.3-0.2,4.2-0.4,8.7l-0.3,5.4l0,4.6c0,1.8,0,3.1,0,4c0.4,0.2,0.7,0.2,1,0.2c0.2,0,0.5-0.1,0.9-0.2
	c0.4-0.1,0.7-0.2,0.9-0.2C102-77,102.4-76.9,102.9-76.7z"/>
<path class="st2" d="M122.7-72.9c-0.5,0-4-0.2-10.6-0.5c-3.3-0.2-6-0.6-8-1.4l0-0.9c0-0.1,0.1-0.3,0.2-0.4c0.2-0.6,0.3-1.6,0.5-2.8
	c0-0.3,0.2-0.7,0.6-1.1c0.1-0.1,0.7-0.3,1.7-0.6c1-0.3,1.6-0.6,1.6-0.7c0-0.8-0.2-3.4-0.6-7.7l-4,0l0-1.3c0-0.4,0.1-1.5,0.4-3.2
	c0.3-1.7,0.5-2.6,0.6-2.9c0.3-0.6,1.6-0.9,3.7-0.9c1.7,0,3.1,0,4.2,0.1l3.3,0.2c1.3,0.1,2.1,0.4,2.3,0.8c0.3,1,0.4,2.1,0.4,3.3
	c0.2,5.8,0.2,10.2,0.1,13.1c0.1,0.1,0.3,0.2,0.3,0.2c0.2,0,0.5,0,0.9-0.1c0.4-0.1,0.7-0.1,0.9-0.1c0.5,0,0.9,0.1,1.1,0.2
	c0.3,0.9,0.4,2.4,0.4,4.6L122.7-72.9z M120.3-104.4c0,4.1-1.7,6.2-5,6.2c-1.9,0-3.5-0.5-4.7-1.4c-1.4-1-2.1-2.4-2.1-4.2
	c0-1.5,0.6-3,1.7-4.5c1.1-1.5,2.4-2.3,3.9-2.3c0.8,0,2.1,0.5,3.8,1.5C119.5-108.4,120.3-106.8,120.3-104.4z"/>
<path class="st2" d="M155.8-95.7c0,0.8-0.2,1.6-0.6,2.4c-0.1,0.3-0.5,0.6-1.1,1.1c-1.6,1.1-2.8,1.7-3.4,1.7c-0.1,0-0.2,0-0.3-0.1
	c-0.1,0-0.2-0.1-0.3-0.1c-0.9,0-1.6-0.5-1.9-1.5c-0.1-0.3-0.2-1.3-0.4-2.7c-0.1-1-0.5-1.5-0.9-1.5c-0.9,0-1.3,0.3-1.3,0.9
	c0,0,0.2,0.4,0.6,1.1c0.4,0.7,0.7,1.1,0.7,1.3c0.4,1.2,0.5,2.6,0.5,4c0,0.2,0,0.5-0.1,0.9c-0.2,0.5-0.2,0.8-0.2,1
	c-0.4,3.1-2.1,5.5-5.2,7.1c-2.4,1.3-5.1,1.9-8,1.9c-0.7,0-1.5-0.2-2.6-0.7c-1-0.5-1.7-1-2-1.5c-0.3,0.1-0.4,0.7-0.5,1.7
	c0,1.8,0.8,2.7,2.6,2.7c0.7,0,1.6-0.2,2.7-0.5c1.5-0.5,2.4-0.8,2.7-0.8c2.7-0.6,4.8-0.9,6.3-0.9c3.9,0,5.9,2.2,5.9,6.5
	c0,3.4-1.8,6-5.3,7.9c-2.6,1.4-5.6,2-8.9,2c-2.8,0-4.9-0.7-6.4-2c-0.2-0.2-0.4-0.6-0.7-1.1c-0.3-0.5-0.4-0.9-0.4-1.1
	c0-0.3,0.4-0.7,1.3-1.3c0.9-0.6,1.5-0.9,1.8-0.9c-0.3,0-0.4,0-0.4,0.1c0,0.1,0.7,0.5,2,1.1c1.9,0.7,3.1,1.1,3.6,1.1
	c1.5,0,2.9-0.6,4.3-1.9c1.4-1.3,1.9-2.6,1.7-4.1c-0.1-0.1-0.4-0.2-0.7-0.2c-0.7,0-2.2,0.5-4.6,1.6c-2.4,1.1-4,1.6-4.9,1.6
	c-1.3,0-2.7-0.6-4.4-1.7c-1.7-1.1-2.8-2.3-3.4-3.4c-0.5-1-0.7-2.2-0.7-3.8c0-2.2,0.5-3.9,1.4-5c0.4-0.4,0.6-0.7,0.6-0.8
	c0,0.3,0,0.4-0.1,0.4c-0.1,0-0.3-0.5-0.7-1.6c-0.5-1.6-0.8-2.7-0.8-3.4c0-1.5,0.6-3.2,1.8-5.3c1.1-2,2.3-3.4,3.5-4.4
	c1.5-1.2,2.9-2,4.1-2.6c0.6-0.3,1.6-0.5,3-0.8c1.4-0.3,2.4-0.4,3.1-0.4c0.8,0,1.5,0.3,1.9,0.8c0.4,0.6,0.9,1.2,1.3,1.8
	c1.8-1.9,3.7-2.8,5.9-2.8c2.1,0,3.8,0.5,5.3,1.4C155-99.2,155.8-97.7,155.8-95.7z M139.2-92.9c0-2.3-0.6-3.5-1.8-3.5
	c-0.1,0-0.1,0-0.1,0c0,0,0,0-0.1,0c-0.1,0-0.2,0-0.3-0.1c-0.1-0.1-0.2-0.1-0.3-0.1c-0.8,0-1.8,1.2-3.1,3.7c-1,1.9-1.5,3.2-1.7,3.8
	c-0.2,0.8-0.3,1.6-0.3,2.5c0,1.7,0.8,2.5,2.6,2.5c1.7,0,3.1-1.2,4.1-3.7C138.8-89.6,139.2-91.3,139.2-92.9z"/>
<path class="st1" d="M193.3-103.8c0,1.6-0.8,3.2-2.5,4.7c-1.7,1.5-3.3,2.2-4.9,2.2c-1.6,0-3-0.6-4.1-1.9c-1.1-1.2-1.6-2.7-1.4-4.3
	l-0.2,0.2c-0.5,2.1-0.8,3.8-0.8,5c0,1.2,0.2,1.7,0.7,1.7l3.7-0.1c0.3,1.7,0.5,3.1,0.5,4.1c0-0.1-0.1,0.4-0.2,1.6
	c-1.2,0.3-2.9,0.9-5,1.7c0.4,2.3,0.9,5.5,1.6,9.5c0.1,0.1,0.3,0.2,0.6,0.2c0.3,0,0.7,0,1.3-0.1c0.5-0.1,1-0.1,1.3-0.1
	c0.1,0,0.3,0.1,0.4,0.3c0.2,0.2,0.3,0.3,0.4,0.4c-0.1,0.5-0.3,1.6-0.6,3.4c-0.2,1.3-0.6,2.5-1,3.6l-16,0.8c-0.1,0-0.5-0.1-1.4-0.4
	c-0.1-1.1-0.2-2.7-0.3-4.7c0.8-0.4,2.1-1,3.8-1.8c-0.2-1.7-0.2-3.8-0.2-6l0.1-6.1c-0.8,0-1.9-0.1-3.2-0.4c0,0,0.1-1.1,0.3-3.5
	c0.2-1.9,0.6-2.8,1.2-2.8c1.3,0,2.1,0.1,2.6,0.2c0.1-0.3,0.2-0.7,0.1-1.1c0-0.4,0-0.9,0-1.5c0-6,3-9.9,9-11.8
	c0.8-0.3,2.5-0.4,5.2-0.4c1.9,0,3.8,0.8,5.8,2.2C192.3-107.3,193.3-105.6,193.3-103.8z"/>
<path class="st1" d="M224.2-79c0,2-1.1,3.6-3.4,4.8c-1.8,1-3.4,1.5-5.1,1.5l-0.5,0c-0.4,0-1.9-1-4.3-3c-0.6,0-1.4,0.2-2.6,0.6
	c-1.2,0.4-2,0.6-2.6,0.6c-0.6,0-1.4,0-2.4,0.1l-2.3,0.2c-2.7,0.2-4.8-1.1-6.3-4c-0.8-1.4-1.2-2.7-1.2-3.7c0-2.1,0.3-3.4,0.8-3.9
	c1.6-1.7,4.1-3.1,7.3-4.1c3.5-1.1,5.5-1.9,6.1-2.3c0.5-0.4,0.8-1.2,0.8-2.4c0-0.8-0.7-1.5-2.1-2.2c-1.1-0.5-2-0.7-2.6-0.7
	c-0.5,0-1,0-1.5,0.1c0.9,0.9,1.4,2,1.4,3.2c0,0.6-0.4,1.3-1.3,2.2c-0.8,0.9-1.6,1.4-2.2,1.6c-0.6,0.2-1.3,0.3-2.1,0.3
	c-1.7,0-3-0.6-4-1.7c-1-1.2-1.5-2.6-1.5-4.3c0-2.6,2.3-4.5,6.9-5.8c3.2-0.9,6.3-1.3,9.3-1.3c3.3,0,5.7,1.1,7.1,3.1
	c1.2,1.8,1.8,4.4,1.8,7.8c0,0.6,0,1.5-0.1,2.7c-0.1,1.2-0.1,2.1-0.1,2.7l0,4.9c0,0.3,0.1,0.5,0.4,0.8c0.3,0.3,0.5,0.4,0.8,0.4
	c0.3,0,0.6-0.6,0.7-1.7c0.2-1.3,0.4-2.1,0.7-2.3c0.8-0.4,1.7-0.8,2.5-1.2l0.4,0C223.8-84.1,224.2-81.7,224.2-79z M210.8-81.4l0-0.6
	c0-2.3-0.4-4.3-1.1-5.9c-0.7,0.2-1.8,0.6-3.2,1.2c-1.7,0.7-2.6,1.5-2.6,2.3c0,0.8,1,1.6,2.9,2.2c1.6,0.6,2.8,0.8,3.5,0.8
	C210.6-81.2,210.7-81.3,210.8-81.4z"/>
<path class="st2" d="M88.1-98.6L88-98.8l-0.2-0.1c-1.4-0.4-14.2-3-14.7-3.1l-0.5-0.1l-0.3,0.3c-0.5,0.4-0.4,1.2,0,3.5
	c0.1,0.6,0.2,1.5,0.2,1.8l-0.1,0.1l0,0.3c0,0.1,1.1,13.5-3.5,17.8c-1.1,1.1-2.5,1.5-4.3,1.3c-1.6-0.2-2.8-1-3.5-2.3
	c-3.1-5.6,2.5-18.8,2.5-18.9l0.1-0.2l0-0.1c0.1-0.3,0.5-1,0.7-1.4c1-1.7,1.3-2.3,1-2.9l-0.3-0.4l-0.4,0c-0.6-0.1-13.5-1.6-14.9-1.7
	l-0.3,0l-0.2,0.1c-0.8,0.5-1.4,1.4-1.9,2.6c-0.8,1.9-1,2.3-1,2.4L46-99.2l0.8,0.4c1.5,0.8,2.8,1.3,3.7,1.8c-0.7,2.5-2.4,9.7-2.4,10
	c-0.4,2.3-0.3,4.3-0.3,6c0,0.8,0,1.6,0,2.3c-0.4,8.2,5.9,13.5,12.5,15.2c0.3,0.1,0.6,0.1,0.9,0.2c7.4,1.6,16.5-0.8,20.1-9.8
	c0.9-2.3,1.8-4.8,2.4-8.1c0.1-0.4,0.8-7.7,0.9-10.3c1-0.1,2.4-0.3,4.1-0.5l0.8-0.1l-0.2-0.8c0-0.1-0.1-0.5-0.2-2.6
	C89-96.8,88.7-97.8,88.1-98.6z M56.8-73.2c-0.5,0.3-1,0.4-1.5,0.3c-0.5-0.1-0.9-0.3-1.2-0.8C54-74,53.9-74.5,54-75.1
	c0.1-0.6,0.4-1,0.8-1.2c0.2-0.1,0.6-0.2,1.3-0.2c0.6,0,1,0.3,1.3,0.9C57.9-74.4,57.7-73.6,56.8-73.2z M54.7-83.2
	c-0.4,0.2-0.8,0.3-1.2,0.3c-0.4-0.1-0.8-0.3-1-0.7c-0.2-0.3-0.2-0.7-0.1-1.2c0.1-0.5,0.3-0.8,0.6-1c0.2-0.1,0.5-0.1,1-0.1
	c0.5,0,0.8,0.2,1.1,0.8C55.7-84.3,55.5-83.6,54.7-83.2z M55.2-93.8c-0.1-0.2-0.1-0.5-0.1-0.8c0.1-0.3,0.2-0.5,0.4-0.6
	c0.1-0.1,0.4-0.1,0.7-0.1c0.3,0,0.5,0.2,0.7,0.5c0.3,0.6,0.2,1-0.3,1.3c-0.3,0.1-0.6,0.2-0.8,0.2C55.6-93.4,55.3-93.5,55.2-93.8z
	 M64.8-67.5c-0.7,0.4-1.3,0.5-1.9,0.4c-0.7-0.1-1.2-0.4-1.5-1c-0.3-0.5-0.3-1.1-0.2-1.9c0.1-0.7,0.5-1.2,1-1.5
	c0.3-0.1,0.8-0.2,1.6-0.2c0.7,0,1.3,0.4,1.7,1.2C66.2-69.1,66-68.1,64.8-67.5z M74.2-71.1c-0.5,0.3-1,0.4-1.5,0.3
	c-0.5-0.1-0.9-0.3-1.2-0.8c-0.2-0.4-0.2-0.9-0.1-1.4c0.1-0.6,0.4-1,0.8-1.2c0.2-0.1,0.6-0.2,1.3-0.2c0.6,0,1,0.3,1.3,0.9
	C75.4-72.4,75.2-71.6,74.2-71.1z M78.1-79.9c-0.4,0.2-0.8,0.3-1.2,0.3c-0.4,0-0.7-0.3-1-0.7c-0.2-0.3-0.2-0.7-0.1-1.2
	c0.1-0.5,0.3-0.8,0.6-1c0.2-0.1,0.5-0.1,1-0.1c0.5,0,0.8,0.2,1.1,0.7C79-81,78.8-80.3,78.1-79.9z M79-89c-0.3,0.2-0.6,0.2-0.9,0.2
	c-0.3,0-0.6-0.2-0.7-0.5c-0.1-0.2-0.2-0.5-0.1-0.9c0.1-0.4,0.2-0.6,0.5-0.7c0.1-0.1,0.4-0.1,0.8-0.1c0.3,0,0.6,0.2,0.8,0.6
	C79.7-89.8,79.5-89.3,79-89z"/>
<path class="st1" d="M222.4-73.9l0.2,0.2l0.2,0.1c1.4,0.4,14.2,3,14.7,3.1l0.5,0.1l0.3-0.3c0.5-0.4,0.4-1.2,0-3.5
	c-0.1-0.6-0.2-1.5-0.2-1.8l0.1-0.1l0-0.3c0-0.1-1.1-13.5,3.5-17.8c1.1-1.1,2.5-1.5,4.3-1.3c1.6,0.2,2.8,1,3.5,2.3
	c3.1,5.6-2.5,18.8-2.5,18.9l-0.1,0.2l0,0.1c-0.1,0.3-0.5,1-0.7,1.4c-1,1.7-1.3,2.3-1,2.9l0.3,0.4l0.4,0c0.6,0.1,13.5,1.6,14.9,1.7
	l0.3,0l0.2-0.1c0.8-0.5,1.4-1.4,1.9-2.6c0.8-1.9,1-2.3,1-2.4l0.4-0.7l-0.8-0.4c-1.5-0.8-2.8-1.3-3.7-1.8c0.7-2.5,2.4-9.7,2.4-10
	c0.4-2.3,0.3-4.3,0.3-6c0-0.8,0-1.6,0-2.3c0.4-8.2-5.9-13.5-12.5-15.2c-0.3-0.1-0.6-0.1-0.9-0.2c-7.4-1.6-16.5,0.8-20.1,9.8
	c-0.9,2.3-1.8,4.8-2.4,8.1c-0.1,0.4-0.8,7.7-0.9,10.3c-1,0.1-2.4,0.3-4.1,0.5l-0.8,0.1l0.2,0.8c0,0.1,0.1,0.5,0.2,2.6
	C221.5-75.7,221.8-74.7,222.4-73.9z M253.7-99.3c0.5-0.3,1-0.4,1.5-0.3c0.5,0.1,0.9,0.3,1.2,0.8c0.2,0.4,0.2,0.9,0.1,1.4
	c-0.1,0.6-0.4,1-0.8,1.2c-0.2,0.1-0.6,0.2-1.3,0.2c-0.6,0-1-0.3-1.3-0.9C252.6-98.1,252.8-98.9,253.7-99.3z M255.8-89.3
	c0.4-0.2,0.8-0.3,1.2-0.3c0.4,0.1,0.8,0.3,1,0.7c0.2,0.3,0.2,0.7,0.1,1.2c-0.1,0.5-0.3,0.8-0.6,1c-0.2,0.1-0.5,0.1-1,0.1
	c-0.5,0-0.8-0.2-1.1-0.8C254.9-88.2,255-88.9,255.8-89.3z M255.3-78.7c0.1,0.2,0.1,0.5,0.1,0.8c-0.1,0.3-0.2,0.5-0.4,0.6
	c-0.1,0.1-0.4,0.1-0.7,0.1c-0.3,0-0.5-0.2-0.7-0.5c-0.3-0.6-0.2-1,0.3-1.3c0.3-0.1,0.6-0.2,0.8-0.2C255-79.1,255.2-79,255.3-78.7z
	 M245.7-105c0.7-0.4,1.3-0.5,1.9-0.4c0.7,0.1,1.2,0.4,1.5,1c0.3,0.5,0.3,1.1,0.2,1.9c-0.1,0.7-0.5,1.2-1,1.5
	c-0.3,0.1-0.8,0.2-1.6,0.2c-0.7,0-1.3-0.4-1.7-1.2C244.3-103.4,244.6-104.4,245.7-105z M236.3-101.4c0.5-0.3,1-0.4,1.5-0.3
	c0.5,0.1,0.9,0.3,1.2,0.8c0.2,0.4,0.2,0.9,0.1,1.4c-0.1,0.6-0.4,1-0.8,1.2c-0.2,0.1-0.6,0.2-1.3,0.2c-0.6,0-1-0.3-1.3-0.9
	C235.2-100.1,235.3-100.9,236.3-101.4z M232.4-92.6c0.4-0.2,0.8-0.3,1.2-0.3c0.4,0,0.7,0.3,1,0.7c0.2,0.3,0.2,0.7,0.1,1.2
	c-0.1,0.5-0.3,0.8-0.6,1c-0.2,0.1-0.5,0.1-1,0.1c-0.5,0-0.8-0.2-1.1-0.7C231.5-91.5,231.7-92.2,232.4-92.6z M231.5-83.5
	c0.3-0.2,0.6-0.2,0.9-0.2c0.3,0,0.6,0.2,0.7,0.5c0.1,0.2,0.2,0.5,0.1,0.9c-0.1,0.4-0.2,0.6-0.5,0.7c-0.1,0.1-0.4,0.1-0.8,0.1
	c-0.3,0-0.6-0.2-0.8-0.6C230.8-82.7,231-83.2,231.5-83.5z"/>
<g>
	<g>
		<path class="st2" d="M167.7-70.2l-1.8-1l1.7-1c0.2-0.1,0.3-0.4,0.1-0.5l-0.4-0.7c-0.1-0.2-0.4-0.3-0.5-0.1l-2.4,1.4l-1.1-1
			l2.4-1.1c0.1-0.1,0.2-0.2,0.2-0.4s-0.1-0.3-0.2-0.4l-2.4-1.1l1.1-0.6l2.5,1.4c0.2,0.1,0.4,0,0.5-0.1l0.4-0.7
			c0.1-0.2,0-0.4-0.1-0.5l-1.7-1l1.8-1c0.2-0.1,0.3-0.4,0.1-0.5l-0.4-0.7c-0.1-0.2-0.4-0.3-0.5-0.1l-1.8,1l0-1.9
			c0-0.2-0.2-0.4-0.4-0.4l-0.8,0c-0.2,0-0.4,0.2-0.4,0.4l0,2.8l-1.2,0.7l0-2.4c0-0.2-0.1-0.3-0.2-0.4c-0.1-0.1-0.3-0.1-0.4,0
			l-1.7,1.2v-1.6l2.5-1.4c0.2-0.1,0.3-0.4,0.1-0.5l-0.4-0.7c-0.1-0.2-0.4-0.3-0.5-0.1l-1.7,1v-1.4c0-0.2-0.2-0.4-0.4-0.4h-0.4h-0.4
			c-0.2,0-0.4,0.2-0.4,0.4v1.4l-1.7-1c-0.2-0.1-0.4,0-0.5,0.1l-0.4,0.7c-0.1,0.2,0,0.4,0.1,0.5l2.5,1.4v1.6l-1.7-1.2
			c-0.1-0.1-0.2-0.1-0.2-0.1c0,0,0,0,0,0c-0.2,0-0.4,0.2-0.4,0.4c0,0.1,0,2.5,0,2.5l-1.2-1.1l0-2.8c0-0.2-0.2-0.4-0.4-0.4l-0.8,0
			c-0.2,0-0.4,0.2-0.4,0.4l0,1.9l-1.8-1c-0.2-0.1-0.4,0-0.5,0.1l-0.4,0.7c-0.1,0.2,0,0.4,0.1,0.5l1.8,1l-1.7,1
			c-0.2,0.1-0.3,0.4-0.1,0.5l0.4,0.7c0.1,0.2,0.4,0.3,0.5,0.1l2.4-1.4l1.1,1l-2.4,1.1c-0.1,0.1-0.2,0.2-0.2,0.4s0.1,0.3,0.2,0.4
			l2.4,1.1l-1.1,0.6l-2.5-1.4c-0.2-0.1-0.4,0-0.5,0.1l-0.4,0.7c-0.1,0.2,0,0.4,0.1,0.5l1.7,1l-1.8,1c-0.2,0.1-0.3,0.4-0.1,0.5
			l0.4,0.7c0.1,0.2,0.4,0.3,0.5,0.1l1.8-1l0,1.9c0,0.2,0.2,0.4,0.4,0.4l0.8,0c0.2,0,0.4-0.2,0.4-0.4l0-2.8l1.2-0.7l0,2.4
			c0,0.2,0.1,0.3,0.2,0.4c0.1,0.1,0.3,0.1,0.4,0l1.7-1.2v1.6l-2.5,1.4c-0.2,0.1-0.3,0.4-0.1,0.5l0.4,0.7c0.1,0.2,0.4,0.3,0.5,0.1
			l1.7-1v1.4c0,0.2,0.2,0.4,0.4,0.4h0.4h0.4c0.2,0,0.4-0.2,0.4-0.4v-1.4l1.7,1c0.2,0.1,0.4,0,0.5-0.1l0.4-0.7c0.1-0.2,0-0.4-0.1-0.5
			l-2.5-1.4v-1.6l1.7,1.2c0.1,0.1,0.2,0.1,0.2,0.1c0,0,0,0,0,0c0.2,0,0.4-0.2,0.4-0.4c0-0.1,0-2.5,0-2.5l1.2,1.1l0,2.8
			c0,0.2,0.2,0.4,0.4,0.4l0.8,0c0.2,0,0.4-0.2,0.4-0.4l0-1.9l1.8,1c0.2,0.1,0.4,0,0.5-0.1l0.4-0.7C167.9-69.9,167.8-70.1,167.7-70.2
			z"/>
	</g>
</g>
<g>
	<path class="st0" d="M172,49.4c0-1.1-0.5-2-1.3-2.8c-0.8-0.7-1.8-1.1-2.8-1.1c-0.1,0-0.2,0-0.4,0c0.1-0.1,0.1-0.2,0.2-0.3
		c1-2,0.2-4.3-1.8-5.3c-0.9-0.5-2-0.6-3-0.2c-0.8,0.3-1.4,0.7-1.9,1.4c-1.1-1.5-3.2-2-4.9-1.2c-2,1-2.7,3.4-1.8,5.3
		c0.1,0.1,0.1,0.2,0.2,0.3c-0.1,0-0.2,0-0.4,0c-2.2-0.1-4,1.6-4.1,3.8c-0.1,2.2,1.6,4,3.8,4.1c0.1,0,0.2,0,0.4,0
		c-0.1,0.1-0.1,0.2-0.2,0.3c-1.1,1.9-0.5,4.3,1.4,5.4c0.9,0.5,2,0.7,3,0.4c1-0.3,1.9-0.9,2.4-1.8c0.1-0.1,0.1-0.2,0.2-0.3
		c0.1,0.1,0.1,0.2,0.2,0.3c0.5,0.9,1.4,1.6,2.4,1.8c0.3,0.1,0.7,0.1,1,0.1c0.7,0,1.4-0.2,2-0.6c1.9-1.1,2.5-3.5,1.4-5.4
		c-0.1-0.1-0.1-0.2-0.2-0.3c0.1,0,0.2,0,0.4,0C170.4,53.4,172.1,51.6,172,49.4z M161,54c-2.2,0-4-1.8-4-4c0-2.2,1.8-4,4-4s4,1.8,4,4
		C165,52.2,163.2,54,161,54z"/>
</g>
<g>
</g>
<g>
</g>
<g>
</g>
<g>
</g>
<g>
</g>
<g>
</g>
<g>
</g>
<g>
</g>
<g>
</g>
<g>
</g>
<g>
</g>
<g>
</g>
<g>
</g>
<g>
</g>
<g>
</g>
</svg>
