<?xml version="1.0" encoding="utf-8"?>
<!-- Generator: Adobe Illustrator 25.2.3, SVG Export Plug-In . SVG Version: 6.00 Build 0)  -->
<svg version="1.1" id="Warstwa_1" xmlns="http://www.w3.org/2000/svg" xmlns:xlink="http://www.w3.org/1999/xlink" x="0px" y="0px"
	 viewBox="0 0 173.9 70.3" style="enable-background:new 0 0 173.9 70.3;" xml:space="preserve">
<style type="text/css">
	.st0{fill:#4AC1EE;}
	.st1{fill:#D7DB2F;}
	.st2{fill:#020203;}
	.st3{fill-rule:evenodd;clip-rule:evenodd;fill:#D7DB2F;}
	.st4{fill-rule:evenodd;clip-rule:evenodd;fill:#4AC1EE;}
	.st5{fill-rule:evenodd;clip-rule:evenodd;fill:#1D71B8;}
	.st6{fill:#FFFFFF;}
</style>
<path class="st0" d="M24,31.1c0,0.8-0.2,1.5-0.7,2.3c-0.4,0.7-1,1.3-1.7,1.7c-0.4,0.2-0.9,0.4-1.2,0.6l-3.6,0.9c-0.1,0-0.4,0-1,0
	l-1,0c-0.6,0-1.5-0.1-2.6-0.4c-0.4-0.2-0.8-0.4-1.2-0.6h-0.6c0,0.3,0,0.6,0,0.9c0,0.4,0,0.8-0.1,1.2c-0.2-0.1-0.4-0.1-0.6-0.1H9.2
	c-0.1,0-0.2,0-0.4,0c-0.2,0-0.4,0-0.4,0c-0.5,0-1.3-0.3-2.5-0.9v-2.8c0-0.3-0.1-0.8-0.2-1.3c-0.1-0.6-0.2-1-0.2-1.3
	c0-0.4,0.6-0.6,1.7-0.8c0.8-0.1,1.5-0.2,2.2-0.2l1.6,2.1c0.7,0.6,1.4,1,2.3,1c0.6,0,1.2-0.2,2-0.5c0.9-0.4,1.4-1,1.4-1.6
	c0-0.4-0.2-0.7-0.7-0.9c-0.4-0.2-0.7-0.3-1.2-0.4l-3.4-0.7c-3.9-0.7-5.9-2.4-5.9-4.9c0-1.4,0.6-2.6,1.9-3.7c1.2-1,2.5-1.6,3.9-1.6
	c0.8-0.2,1.8-0.3,3.2-0.3c0.7,0,1.7,0.1,3.1,0.4c0.3,0.1,1,0.4,2.3,0.9c0-0.3,0.2-0.7,0.3-1.4c1.3,0.1,2.2,0.2,2.6,0.2
	c0.3,0,0.5,0.2,0.6,0.5c0.2,0.8,0.3,1.9,0.3,3.3c0,0.9-0.1,1.5-0.4,1.9c-1.4,0.2-2.2,0.4-2.2,0.4h-1.6c0-0.6-0.4-1.1-1.1-1.7
	c-0.7-0.6-1.3-0.9-1.9-0.9c-0.7,0-1.3,0.1-1.9,0.4c-0.7,0.3-1.1,0.8-1.1,1.4c0,0.4,0,0.5,0,0.4c0,0.1,0.2,0.3,0.5,0.5
	c0.1,0.1,0.7,0.2,1.9,0.4c0.5,0.1,1.4,0.3,2.8,0.6c2.3,0.5,3.9,1.3,4.8,2.3c0.1,0.2,0.2,0.6,0.4,1.4C23.9,30.4,24,30.9,24,31.1z"/>
<path class="st0" d="M43.7,29.1c0,3.8-1.1,6.3-3.4,7.5l-1.5,0.7C38,37.8,37.5,38,37.4,38h-2.2c-0.2,0-0.7-0.2-1.5-0.5
	c0,0,0,0.1,0,0.4c0,0.3,0,0.8,0.1,1.6c0.1,1,0.2,1.6,0.3,1.8l2.3-0.2c0.5,0,0.8,0.1,0.9,0.4c0.1,0.7,0.2,1.5,0.2,2.4
	c0,0.8-0.1,1.2-0.3,1.2c-0.2,0-0.9,0-2.2,0.1l-2.1,0.1l-3.4-0.1c-0.1,0-0.4,0-1,0.1l-1,0.1c0,0-0.5,0-1.2-0.1c-0.5,0-1.3,0-2.2-0.2
	c-0.1-0.4-0.1-1-0.1-1.7v-1.4c0.1-0.3,0.5-0.6,1.4-0.9l1.8-0.6c0-0.5-0.1-1.7-0.2-3.5l-0.2-2.3v-2.6c0-1.9-0.1-3.8-0.4-5.7
	c0-0.1-0.2-0.2-0.5-0.2c-0.4,0-1,0.1-1.6,0.2c0-0.1,0-0.2-0.1-0.4c-0.1-0.2-0.1-0.3-0.1-0.4c0-1.6,0-2.7,0.1-3.4
	c0-0.3,0.3-0.5,0.7-0.6l1.1-0.1c0.5,0,1.2,0,2.2,0c0.8-0.2,1.9-0.4,3.4-0.6c0.2,0.3,0.3,0.6,0.4,1c0.1,0.6,0.1,1.1,0.1,1.3
	c0.3-0.3,0.7-0.7,1.4-1.2c0.2-0.2,0.7-0.5,1.6-0.8c0.8-0.4,1.4-0.5,1.7-0.5c1.9,0,3.2,0.3,4,1C42.6,23.1,43.7,25.7,43.7,29.1z
	 M37.4,29.3c0-1-0.1-2-0.4-3c-0.4-1.4-0.9-2.1-1.7-2.1c-1.7,0-2.6,0.8-2.5,2.4c0,0.1,0,0.5-0.1,1.1l-0.1,0.7c0,1.2,0.1,2.3,0.4,3.3
	c0.4,1.6,1,2.4,1.9,2.4C36.6,34.1,37.4,32.5,37.4,29.3z"/>
<path class="st0" d="M75.5,25.7c0,0.1-0.1,0.3-0.2,0.5c-1.2,0.4-1.9,0.7-2.2,1.1c-0.2,0.2-0.3,0.7-0.5,1.4c-0.6,2.1-1.4,4.3-2.5,6.4
	c-0.4,0.8-1.6,3.1-3.7,6.8c-0.5,0.8-1.1,1.5-2.1,2.1c-0.9,0.6-1.9,0.9-2.8,0.9c-1.4,0-2.7-0.4-3.9-1.2c-1.5-0.9-2.2-2.1-2.2-3.5
	c0-1,0.4-1.9,1.2-2.8c0.8-0.8,1.8-1.2,2.8-1.2c0.7,0,1.4,0.2,2,0.6s0.9,1,0.9,1.7c0,0.6-0.1,1.1-0.4,1.5c-0.1,0.2-0.5,0.6-1,1.3
	c0.3,0.1,0.5,0.2,0.6,0.2c0.2,0,0.5-0.2,0.9-0.5c0.4-0.3,0.7-0.6,0.8-0.9c0.6-1,0.9-1.6,0.9-2c0,0-0.4-0.7-1.2-2.1
	c-1.1-2.9-2.6-6.5-4.3-10.7c0,0-0.1-0.1-0.3-0.1c0.4,0,0.1,0-0.8,0h-1.5c-0.1,0-0.2-0.1-0.2-0.3v-0.7c0-0.2,0-0.3,0-0.5v-0.2
	c0-0.6,0.1-1.3,0.2-2.1l4.1-0.3c0.7,0,2.1,0,4.2,0.1c0.4,0,0.7,0.6,1,1.6l0.3,1.2c-0.5,0.3-1.1,0.7-2,1.4c0.5,0.5,1.1,1.2,1.9,2.3
	c0.7,1.1,1.4,1.8,1.9,2.3c0.7-1.5,1.3-3,1.9-4.4c-0.3-0.1-1.2-0.1-2.5-0.1c-0.3,0-0.4-0.2-0.4-0.5c0,0.1,0.1-0.3,0.4-1.3
	c0.1-0.5,0.2-1,0.2-1.6c0.1-0.2,0.3-0.2,0.5-0.2c0.5,0,1.1,0,1.9,0.1C70,22,70.6,22,71,22c2.8,0.1,4.3,0.3,4.6,0.6V25.7z"/>
<g>
	<path class="st3" d="M123.2,14.9c-1.3-0.9-2.5-1.4-3.7-1.4c-1.7,0-2.8,0.1-3.3,0.2c-3.8,1.2-5.7,3.7-5.7,7.5c0,0.4,0,0.7,0,1
		c0,0.3,0,0.5-0.1,0.7c-0.3-0.1-0.9-0.1-1.7-0.1c-0.4,0-0.7,0.6-0.8,1.8c-0.1,1.5-0.2,2.2-0.2,2.2c0.8,0.2,1.5,0.3,2,0.2l-0.1,3.9
		c0,1.4,0,2.7,0.1,3.8c-0.9,0.4-1.6,0.8-2.1,1c-2.8-1.9-4.8-4.1-8.4,0.5c3.5-2.5,6.2,6.9,13.7,2.6l5.6-0.3c0.3-0.7,0.5-1.5,0.6-2.3
		c0.2-1.1,0.3-1.9,0.4-2.2c0,0-0.1-0.1-0.2-0.2c-0.1-0.1-0.2-0.2-0.3-0.2c-0.2,0-0.5,0-0.8,0.1c-0.3,0-0.6,0.1-0.8,0.1
		c-0.2,0-0.3,0-0.4-0.1c-0.5-2.6-0.8-4.6-1-6c1.4-0.5,2.4-0.9,3.2-1.1c0.1-0.8,0.1-1.1,0.1-1c0-0.6-0.1-1.5-0.3-2.6l-2.3,0.1
		c-0.3,0-0.5-0.4-0.5-1.1c0-0.8,0.2-1.9,0.5-3.2l0.1-0.1c-0.1,1,0.2,2,0.9,2.8c0.7,0.8,1.6,1.2,2.6,1.2s2.1-0.5,3.1-1.4
		c1.1-1,1.6-2,1.6-3C125.2,17,124.5,15.9,123.2,14.9z"/>
	<path class="st3" d="M167.4,31.7c0-0.1,0-0.2-0.1-0.5c-0.1-0.2-0.1-0.4-0.1-0.5h-0.6h-1.6c-0.1-1.8-0.1-3-0.1-3.7
		c0-1.4-0.3-2.6-0.7-3.7c-0.5-1.2-1.3-2.3-2.5-3.3c-1.3-1.1-2.5-1.6-3.7-1.6c-0.4,0-1.1,0.2-2.1,0.5c-0.9,0.3-1.6,0.5-2.1,0.7
		c-1.4,0.6-2.4,1.5-3,2.6c-0.1-0.7-0.2-1.4-0.4-2.1h-0.2c0,0-0.1,0-0.2,0c-0.1,0-0.1,0-0.2,0c-0.1,0-0.9,0.1-2.6,0.3
		c-1.7,0.2-2.6,0.3-2.7,0.4c0,0.2,0,0.8,0,1.8c0,0.3,0,0.6,0,1c0,0.3,0,0.5,0,0.4c0,0.5,0.1,0.9,0.2,1.2c1.5,0.1,2.4,0.2,2.6,0.2
		c0,0,0,0.1-0.1,0.2c0,0.1-0.1,0.2-0.1,0.2v2.6l0.2,4.5c-0.2,0.1-0.6,0.3-1.3,0.4c-0.6,0.1-1,0.3-1.2,0.4c0-1.7-0.3-3.1-0.8-4.5
		h-0.3c-0.5,0.3-1.1,0.5-1.6,0.8c-0.2,0.2-0.3,0.7-0.5,1.5c-0.1,0.7-0.2,1.1-0.5,1.1c-0.2,0-0.3-0.1-0.5-0.3
		c-0.2-0.2-0.2-0.4-0.2-0.5v-3.1c0-0.4,0-1,0.1-1.7c0-0.8,0.1-1.4,0.1-1.7c0-2.2-0.4-3.9-1.1-5c-0.9-1.3-2.4-2-4.6-2
		c-1.9,0-3.9,0.3-5.9,0.9c-2.9,0.8-4.4,2.1-4.4,3.7c0,1.1,0.3,2,1,2.7c0.7,0.7,1.5,1.1,2.6,1.1c0.5,0,1-0.1,1.4-0.2s0.9-0.5,1.4-1
		c0.5-0.5,0.8-1,0.8-1.4c0-0.8-0.3-1.5-0.9-2.1c0.3,0,0.7-0.1,1-0.1c0.4,0,1,0.2,1.7,0.5c0.9,0.4,1.4,0.9,1.4,1.4
		c0,0.8-0.2,1.3-0.5,1.5c-0.3,0.3-1.6,0.8-3.9,1.5c-2.1,0.6-3.6,1.5-4.7,2.6c-0.3,0.4-0.5,1.2-0.5,2.5c0,0.7,0.3,1.5,0.8,2.4
		c1,1.8,2.3,2.6,4.1,2.5l1.5-0.1c0.7,0,1.2-0.1,1.5-0.1c0.4,0,0.9-0.1,1.7-0.4c0.7-0.3,1.3-0.4,1.7-0.4c1.6,1.3,2.5,1.9,2.8,1.9h0.3
		c1,0,2.1-0.3,3.2-1c1.2-0.7,1.9-1.6,2.1-2.6v2.3l0.2-0.1l0.1,0.2l10.4,0.3v-4h-2.4c0.1-0.5,0.1-0.8,0.1-1c0.1-0.4,0.1-0.8,0.1-1.2
		c0-0.5,0-1.1-0.1-2c-0.1-0.9-0.1-1.5-0.1-2c0-0.8,0-1.4,0.1-1.8c0-0.5,0.3-0.8,0.9-1.1c0.5-0.3,1-0.5,1.5-0.5c1,0,1.8,0.5,2.3,1.5
		c0.1,0.2,0.3,1.1,0.7,2.6c0.3,1.1,0.4,1.9,0.4,2.2v2.5c-0.6,0.5-1.4,0.8-2.2,1c0,0.1,0,0.3,0,0.6s0,0.4,0,0.6
		c0,0.8,0.1,1.6,0.2,2.5c0.2,0.1,0.4,0.2,0.7,0.2c0.1,0,0.2,0,0.4,0.1c0.2,0,0.3,0.1,0.4,0.1l2.5-0.2l0.5,0c1.2-0.1,1.9-0.1,2-0.1
		c0.1,0,0.3,0,0.5-0.1c0.2-0.1,0.4-0.1,0.5-0.1c1.2,0,2.1,0,2.8-0.1c0-0.1,0-0.2,0-0.3c0-0.1,0-0.2,0-0.3c-0.1-0.5-0.1-1.2,0-2.1
		C167.4,32.7,167.4,32,167.4,31.7z M136.4,32.4c-0.1,0.1-0.2,0.1-0.3,0.1c-0.4,0-1.2-0.2-2.2-0.5c-1.2-0.4-1.9-0.9-1.9-1.4
		c0-0.5,0.6-1,1.7-1.5c0.9-0.4,1.5-0.6,2-0.7c0.5,1,0.7,2.2,0.7,3.7V32.4z"/>
</g>
<path class="st4" d="M91.2,44.8c5.2-5.4,5.5,3.2,12.4,1.7C95.8,51.8,94.7,43.9,91.2,44.8z"/>
<path class="st4" d="M58.5,9.3l-0.1-0.9l-0.1,0.2l-5.1,0.2C51.4,8.9,50,8.9,49.2,9C47.5,9,46.3,9,45.6,9c-0.2,0.5-0.3,1.3-0.4,2.3
	c0,0.4,0,1.3-0.1,2.5c0.4,0.1,0.7,0.2,0.9,0.2c0.1,0,0.3-0.1,0.6-0.2c0.3-0.1,0.5-0.1,0.6-0.2c0.2,0,0.4,0,0.7,0.1l0.5,0
	c0.1,0.7-2.2,19.5-3.6,22.1c-4.9,1.6-4.8,5.8-5.4,9.8c-0.5,2.8-1.8,4.7-2.4,7.5c-1.5,7.6,0.7,10.3,8.6,10.6c3.5,0.1,5.7-1,6.2-4.9
	c0.6-4.4,0.4-10.2,1.7-12.9s-0.1-6.7-1.4-8.2c-0.2-0.2-0.5-0.5-0.6-0.8c-0.2-2.7,3.3-22.4,4.4-24.2c0.8-0.5,2.3-0.7,2.4-0.9
	C58.5,11.4,58.6,10.6,58.5,9.3z"/>
<path class="st0" d="M92,35.1c0.3-0.2,0.7-0.3,1-0.4c1.6-0.4,3.2,0.2,4.9,1.3c0-0.1,0.1-0.1,0.1-0.2c0,0,0.1-0.2,0.1-0.5
	c0.7-2.1,1.1-3.4,1.2-3.8c0.5-1.8,1-3.2,1.2-4.1c0.3-0.9,0.6-1.9,0.8-2.9c0.5-1.1,1.1-1.7,2-1.9c0.6,0,1.2-0.1,1.8-0.2l0-0.4
	c0-0.3-0.2-0.9-0.5-1.9c-0.4-1.1-0.7-1.6-0.9-1.6l-2,0.3c-1.3,0.2-2,0.3-2.2,0.3l-1.6,0c-0.6,0-1.2,0.1-1.6,0.4
	c0.3,1.2,0.4,1.9,0.3,2.2c-0.1,0.5-0.1,0.9-0.1,1c0.2,0.2,0.4,0.4,0.7,0.4c0,0,0.1,0,0.2,0c0.1,0,0.1,0,0.2,0c0.1,0,0.2,0,0.2,0.1
	c-1,3.5-1.8,5.8-2.5,6.8c-0.8-3.1-1.3-5.4-1.7-7c0.3-0.1,0.5-0.1,0.7-0.1l0.5-0.1c0.5-0.1,0.8-0.4,0.8-0.7c0-0.8-0.2-1.7-0.5-2.8
	c-0.1-0.2-0.2-0.3-0.3-0.3c-0.6,0.2-1,0.3-1.1,0.3l-2.2-0.1c0,0-0.1,0-0.4,0.1c-1.3,0.1-2.3,0.2-3,0.2c-1.3,0.1-2,0.3-2.1,0.6
	c0,1.9,0,2.9,0,3c0.1,0.5,0.3,0.7,0.6,0.7c0.4,0,0.6,0,0.6,0c0,0,0,0.1,0,0.2c0,0.2-0.2,1.1-0.7,2.7c-0.7,2.2-1.2,3.4-1.4,3.5
	c-1.5-3.7-2.4-5.9-2.6-6.5c0.3-0.1,0.7-0.3,1.4-0.5c0.5-0.1,0.7-0.3,0.8-0.6c-0.2-0.3-0.4-0.8-0.7-1.7c-0.3-0.8-0.5-1.3-0.6-1.5
	c-1.4,0.1-2.4,0.3-3.1,0.4c-0.8,0.1-1.7,0.1-2.7,0.1c-0.6,0-1.3,0-2,0c-0.3,0.3-0.4,0.4-0.5,0.4l-0.1,1.5c0,0.2-0.1,0.4-0.2,0.8
	c-0.1,0.4-0.2,0.6-0.2,0.8v0.4c0.1,0,0.3,0,0.6,0c0.3,0,0.5,0,0.6,0c0.3,0,0.4,0,0.5,0c0.7,2.6,1.2,4.6,1.4,5.9
	c0.3,0.9,0.6,1.5,0.8,1.9c0.7,2.3,1.2,3.7,1.5,4.4c0.1,0,0.2,0,0.4,0.1c0.2,0,0.3,0.1,0.4,0.1h3c0.7,0,1.5,0.1,2.5,0.2
	c0.6-1.2,1-2.3,1.3-3.2c0.4-1.2,1-2.9,1.9-5c0.5,0.9,1.1,2.4,1.7,4.3C91.5,33.6,91.8,34.4,92,35.1z"/>
<path class="st4" d="M90.2,38.8c5.9-11.8,14.6,13.4,27.6,0.6C106.1,57.5,95.1,34.6,90.2,38.8z"/>
</svg>
