<?xml version="1.0" encoding="utf-8"?>
<!-- Generator: Adobe Illustrator 25.2.3, SVG Export Plug-In . SVG Version: 6.00 Build 0)  -->
<svg version="1.1" id="Warstwa_1" xmlns="http://www.w3.org/2000/svg" xmlns:xlink="http://www.w3.org/1999/xlink" x="0px" y="0px"
	 viewBox="0 0 200 200" style="enable-background:new 0 0 200 200;" xml:space="preserve">
<style type="text/css">
	.st0{fill:none;}
	.st1{fill-rule:evenodd;clip-rule:evenodd;fill:#4AC0ED;}
</style>
<g>
	<path class="st0" d="M128.5,42.2l-0.7-12l-5,7.1l-9.9,0.4c-4.2,0.3-7.4,0.4-9.4,0.6c-3.6,0.1-6.3,0.1-7.8,0L93,38l-0.8,2.5
		c-0.6,1.5-0.8,3.5-1.1,6.3c-0.1,1.1-0.1,2.9-0.1,5.9v2.7l2.5,0.8c1.3,0.4,2.2,0.6,3.2,0.6c0.4,0,1-0.1,1.5-0.3
		c-1.1,9.9-4.9,36.8-7.1,43.7c-10.5,4.2-11.7,13.5-12.7,21.2c-0.1,1.1-0.3,2.2-0.6,3.3c-0.4,2.9-1.5,5.4-2.5,8.1
		c-1.1,2.7-2.2,5.4-2.8,8.8c-2,10-1.3,16.5,2.4,21.1c3.6,4.6,9.9,6.8,20.4,7.3c0.4,0,0.8,0,1.4,0c9.8,0,15.2-4.6,16.5-14.1
		c0.4-3.6,0.7-7.5,1-11.3c0.4-6.7,0.8-13.7,2.5-17c3.8-7.7,0.1-18.1-3.8-22.5l-0.1-0.3l-0.3-0.3l0,0c0.1-7.5,6.7-44.7,9.2-51.6
		c0.7-0.3,1.4-0.4,2.1-0.7c1.7-0.6,3.1-1,3.9-2.4C128.3,48.3,128.7,45.8,128.5,42.2z"/>
	<path class="st1" d="M112.3,103.8c0,0.3,0,0.6,0,0.7l0,0l0.3,0.3l0.1,0.3c2.5,2.8,4.9,8.2,5.3,13.8c7.5,2.8,17.4,3.2,32.2-4.2
		C129.7,117.8,121.5,107.5,112.3,103.8z"/>
	<path class="st1" d="M125,42.3v-2.1l-0.3,0.4L113.1,41c-4.3,0.3-7.4,0.4-9.5,0.6c-3.8,0.1-6.6,0.1-8.2,0c-0.4,1.1-0.7,2.9-0.8,5.3
		c0,1-0.1,2.9-0.1,5.7c0.8,0.3,1.5,0.4,2,0.3c0.3,0,0.8-0.1,1.4-0.4c0.6-0.3,1.1-0.3,1.4-0.4c0.4,0,1,0,1.7,0.3l1.1-0.1
		c0.3,1.5-5,44.5-8.2,50.5c-11.2,3.6-11,13.4-12.4,22.3c-1,6.4-4.2,10.7-5.4,17.2c-3.3,17.3,1.7,23.6,19.5,24.3
		c8.1,0.3,13-2.2,14.2-11.2c1.4-10,0.8-23.3,3.8-29.4c2.9-6.1-0.1-15.2-3.2-18.7c-0.6-0.4-1-1.1-1.4-1.8c-0.4-6,7.5-51.1,10-55.3
		c2-1.1,5.3-1.7,5.6-2.1C125,47.2,125.3,45.2,125,42.3z"/>
	<g>
		<path class="st1" d="M77.8,124.6c0.1-1.1,0.3-2.2,0.6-3.3c0.1-1.4,0.4-2.9,0.7-4.5c-17.6-9.2-32.1-15.5-44.2,2
			c9.5-5.9,23.7,3.6,41,12.8C76.6,129.4,77.4,127.1,77.8,124.6z"/>
		<path class="st1" d="M115.2,132.2c-0.7,3.5-1,8.1-1.3,12.6v0.1c16.2,1.3,33.5-4.2,51.2-24C146.8,134,130.1,135.5,115.2,132.2z"/>
	</g>
	<path class="st1" d="M71.8,145c-12.8-5.7-18.7-15.8-35.6-2.9c12.3-2.2,18.3,12,35.3,12.3C71.3,151.7,71.3,148.6,71.8,145z"/>
</g>
</svg>
