<svg id="Layer_1" enable-background="new 0 0 510 510" height="512" viewBox="0 0 510 510" width="512" xmlns="http://www.w3.org/2000/svg"><g><path d="m488.468 345.72c12.879-4.987 21.532-17.679 21.532-31.584v-64.334c0-19.068-15.513-34.582-34.582-34.582h-3.531c10.468-13.552 9.502-33.148-2.921-45.572l-45.491-45.491c-9.831-9.831-24.924-12.688-37.558-7.108-6.786 2.998-14.871 1.485-20.118-3.762-5.247-5.248-6.76-13.333-3.764-20.118 5.581-12.633 2.725-27.727-7.108-37.559l-45.49-45.491c-13.482-13.481-35.422-13.483-48.906 0l-205.1 205.101h-20.849c-19.069 0-34.582 15.514-34.582 34.582v64.334c0 13.905 8.653 26.598 21.532 31.583 6.917 2.679 11.565 9.465 11.565 16.886s-4.648 14.208-11.565 16.886c-12.879 4.989-21.532 17.682-21.532 31.585v64.333c0 19.068 15.513 34.582 34.582 34.582h440.836c19.069 0 34.582-15.514 34.582-34.582v-64.333c0-13.903-8.652-26.596-21.531-31.585-6.918-2.679-11.566-9.465-11.566-16.886s4.648-14.207 11.565-16.885zm-206.724-314.386c1.787-1.787 4.694-1.787 6.48-.001l45.49 45.491c1.139 1.139 1.492 2.836.878 4.225-7.963 18.031-3.947 39.512 9.993 53.451 13.94 13.94 35.421 17.955 53.453 9.992 1.387-.612 3.085-.26 4.224.879l45.49 45.49c1.787 1.787 1.787 4.695.001 6.48l-17.88 17.879h-78.162l-126.927-126.927zm-78.173 78.172 105.715 105.714h-211.43zm-173.571 365.903v-64.333c0-1.611.951-3.061 2.366-3.609 18.381-7.119 30.73-25.147 30.73-44.862s-12.35-37.743-30.732-44.862c-1.414-.547-2.364-1.997-2.364-3.607v-64.334c0-2.526 2.056-4.582 4.582-4.582h340.418v234.771h-340.418c-2.526 0-4.582-2.055-4.582-4.582zm450-161.273c0 1.61-.95 3.06-2.365 3.608-18.381 7.119-30.732 25.147-30.732 44.862s12.35 37.743 30.731 44.861c1.415.548 2.366 1.999 2.366 3.609v64.333c0 2.526-2.056 4.582-4.582 4.582h-70.418v-234.771h70.418c2.526 0 4.582 2.056 4.582 4.582z"/><path d="m105 284.991h225v30h-225z"/><path d="m105 344.991h225v30h-225z"/><path d="m105 404.991h225v30h-225z"/></g></svg>