<svg height="640pt" viewBox="0 -42 640 640" width="640pt" xmlns="http://www.w3.org/2000/svg"><path d="m62.28125 313.21875v125.003906c0 28.597656 21.453125 52.261719 49.109375 55.78125v24.84375c0 20.246094 16.414063 36.65625 36.660156 36.65625 20.246094 0 36.660157-16.410156 36.660157-36.65625v-24.375h269.703124v24.375c0 20.246094 16.414063 36.65625 36.660157 36.65625 20.25 0 36.660156-16.410156 36.660156-36.65625v-24.730468c28.078125-3.132813 49.984375-26.992188 49.984375-55.894532v-125.003906zm395.882812 35.847656c20.59375 0 37.289063 16.695313 37.289063 37.285156 0 20.597657-16.695313 37.289063-37.289063 37.289063s-37.289062-16.691406-37.289062-37.289063c0-20.589843 16.695312-37.285156 37.289062-37.285156zm-276.328124 0c20.59375 0 37.289062 16.695313 37.289062 37.285156 0 20.597657-16.695312 37.289063-37.289062 37.289063s-37.289063-16.691406-37.289063-37.289063c0-20.589843 16.695313-37.285156 37.289063-37.285156zm0 0"/><path d="m577.71875 74.800781v-18.550781c0-31.015625-25.234375-56.25-56.25-56.25h-402.9375c-31.015625 0-56.25 25.234375-56.25 56.25v18.550781c-35.609375 8.105469-62.28125 40.003907-62.28125 78.035157v50.792968c0 10.355469 8.394531 18.75 18.75 18.75s18.75-8.394531 18.75-18.75v-50.792968c0-17.125 10.171875-31.902344 24.78125-38.648438v161.53125h277.382812c4.507813-26.765625 27.914063-47.320312 55.90625-47.320312h39.644532c27.988281 0 51.394531 20.554687 55.910156 47.320312h86.59375v-161.53125c14.609375 6.746094 24.78125 21.523438 24.78125 38.648438v50.792968c0 10.355469 8.394531 18.75 18.75 18.75s18.75-8.394531 18.75-18.75v-50.792968c0-38.03125-26.671875-69.929688-62.28125-78.035157zm-162.3125 115.941407c-20.851562 0-37.753906-16.90625-37.753906-37.753907 0-20.847656 16.902344-37.753906 37.753906-37.753906 20.847656 0 37.753906 16.90625 37.753906 37.753906 0 20.847657-16.90625 37.753907-37.753906 37.753907zm0 0"/></svg>